<?xml version="1.0" standalone="no"?><!DOCTYPE svg PUBLIC "-//W3C//DTD SVG 1.1//EN" "http://www.w3.org/Graphics/SVG/1.1/DTD/svg11.dtd"><svg t="1621168373908" class="icon" viewBox="0 0 1024 1024" version="1.1" xmlns="http://www.w3.org/2000/svg" p-id="1357" xmlns:xlink="http://www.w3.org/1999/xlink" width="200" height="200"><defs><style type="text/css"></style></defs><path d="M874.666667 256v512a170.666667 170.666667 0 0 1-170.666667 170.666667H320a170.666667 170.666667 0 0 1-170.666667-170.666667V256H128a32 32 0 0 1 0-64h768a32 32 0 0 1 0 64h-21.333333z m-661.333334 0v512a106.666667 106.666667 0 0 0 106.666667 106.666667h384a106.666667 106.666667 0 0 0 106.666667-106.666667V256H213.333333z m170.666667-106.666667a32 32 0 0 1 0-64h256a32 32 0 0 1 0 64H384z m-10.666667 277.333334a32 32 0 0 1 64 0v256a32 32 0 0 1-64 0V426.666667z m213.333334 0a32 32 0 0 1 64 0v256a32 32 0 0 1-64 0V426.666667z" fill="#000000" p-id="1358"></path></svg>