<?xml version="1.0" standalone="no"?><!DOCTYPE svg PUBLIC "-//W3C//DTD SVG 1.1//EN" "http://www.w3.org/Graphics/SVG/1.1/DTD/svg11.dtd"><svg t="1621168522736" class="icon" viewBox="0 0 1024 1024" version="1.1" xmlns="http://www.w3.org/2000/svg" p-id="2171" xmlns:xlink="http://www.w3.org/1999/xlink" width="200" height="200"><defs><style type="text/css"></style></defs><path d="M288 896 96 896c-17.7 0-32-14.3-32-32s14.3-32 32-32l192 0c17.7 0 32 14.3 32 32S305.7 896 288 896z" p-id="2172"></path><path d="M608 896 416 896c-17.7 0-32-14.3-32-32s14.3-32 32-32l192 0c17.7 0 32 14.3 32 32S625.7 896 608 896z" p-id="2173"></path><path d="M928 896 736 896c-17.7 0-32-14.3-32-32s14.3-32 32-32l192 0c17.7 0 32 14.3 32 32S945.7 896 928 896z" p-id="2174"></path><path d="M148.6 768 64 768l0-84.6c0-28.2 5.5-55.8 16.3-81.9 10.8-26.1 26.4-49.4 46.4-69.4L572.2 86.6c18.1-18.1 42.2-28.1 67.8-28.1s49.7 10 67.8 28.1l37.6 37.6c18.1 18.1 28.1 42.2 28.1 67.8s-10 49.7-28.1 67.8L299.9 705.3c-20 20-43.3 35.6-69.4 46.4C204.4 762.5 176.9 768 148.6 768zM128 704l20.6 0c40 0 77.7-15.6 106-43.9l445.5-445.5c12.4-12.4 12.4-32.7 0-45.1l-37.6-37.6c-12.4-12.4-32.7-12.4-45.1 0L171.9 577.3c-28.3 28.3-43.9 66-43.9 106L128 704z" p-id="2175"></path><path d="M489.37465 214.63685l45.2544-45.2544 127.9851 127.9851-45.2544 45.2544-127.9851-127.9851Z" p-id="2176"></path><path d="M137.35511 598.61231l45.2544-45.2544 96.02418 96.02418-45.2544 45.2544-96.02418-96.02418Z" p-id="2177"></path></svg>